<svg xmlns="http://www.w3.org/2000/svg"{% if include.width %} width="{{ include.width }}"{% endif %}{% if include.height %} height="{{ include.height }}"{% endif %}{% if include.class %} class="{{ include.class }}"{% endif %} viewBox="0 0 1087 203" role="img"><title>OptiMargin</title>
    <g transform="matrix(1,0,0,1,-2577.58,-528.484)">
        <g transform="matrix(4.16667,0,0,4.16667,0,0)">
            <g transform="matrix(1,0,0,1,696.833,156.938)">
                <path fill="currentColor" d="M0,-11.459C0,-13.661 -1.393,-15.188 -5.797,-15.188C-10.2,-15.188 -11.594,-13.661 -11.594,-11.459L-11.594,0C-11.594,2.247 -10.2,3.729 -5.797,3.729C-1.393,3.729 0,2.247 0,0L0,-11.459ZM-13.931,-11.594C-13.931,-14.874 -11.818,-17.166 -5.797,-17.166C0.225,-17.166 2.337,-14.874 2.337,-11.594L2.337,0.18C2.337,3.415 0.225,5.707 -5.797,5.707C-11.818,5.707 -13.931,3.415 -13.931,0.18L-13.931,-11.594Z"/>
            </g>
        </g>
        <g transform="matrix(4.16667,0,0,4.16667,0,0)">
            <g transform="matrix(1,0,0,1,719.076,165.79)">
                <path fill="currentColor" d="M0,-20.177C0,-22.244 -1.259,-23.862 -4.404,-23.862C-8.089,-23.862 -10.605,-22.019 -11.594,-21.165L-11.594,-7.909C-10.605,-7.145 -8.089,-5.258 -4.404,-5.258C-1.259,-5.258 0,-6.92 0,-8.988L0,-20.177ZM-12.268,-25.659C-11.908,-25.659 -11.729,-25.479 -11.729,-25.075L-11.684,-23.233C-10.381,-24.266 -7.729,-26.019 -3.864,-26.019C0.404,-26.019 2.292,-23.772 2.292,-20.491L2.292,-8.673C2.292,-5.393 0.404,-3.146 -3.864,-3.146C-7.685,-3.146 -10.291,-4.808 -11.594,-5.842L-11.594,5.302C-11.594,5.662 -11.773,5.842 -12.133,5.842L-13.392,5.842C-13.796,5.842 -13.931,5.662 -13.931,5.302L-13.931,-25.075C-13.931,-25.479 -13.796,-25.659 -13.392,-25.659L-12.268,-25.659Z"/>
            </g>
        </g>
        <g transform="matrix(4.16667,0,0,4.16667,0,0)">
            <g transform="matrix(1,0,0,1,735.882,156.848)">
                <path fill="currentColor" d="M0,-16.627C0.359,-16.627 0.539,-16.492 0.539,-16.133L0.539,-15.234C0.539,-14.83 0.359,-14.695 0,-14.695L-5.303,-14.695L-5.303,-0.315C-5.303,1.887 -4.045,3.415 0.359,3.415L1.078,3.415C1.437,3.415 1.617,3.594 1.617,3.954L1.617,4.898C1.617,5.302 1.437,5.437 1.078,5.437L0.09,5.437C-5.978,5.437 -7.64,3.28 -7.64,-0.09L-7.64,-14.695L-10.471,-14.695C-10.875,-14.695 -11.01,-14.83 -11.01,-15.234L-11.01,-15.953C-11.01,-16.357 -10.875,-16.447 -10.471,-16.492L-8.089,-16.627L-7.64,-16.627L-7.64,-21.481C-7.64,-21.885 -7.46,-22.064 -7.101,-22.064L-5.797,-22.064C-5.437,-22.064 -5.303,-21.885 -5.303,-21.481L-5.303,-16.627L0,-16.627Z"/>
            </g>
        </g>
        <g transform="matrix(4.16667,0,0,4.16667,0,0)">
            <g transform="matrix(1,0,0,1,744.014,131.413)">
                <path fill="currentColor" d="M0,30.333C0,30.692 -0.18,30.872 -0.539,30.872L-1.798,30.872C-2.202,30.872 -2.337,30.692 -2.337,30.333L-2.337,9.302C-2.337,8.898 -2.202,8.718 -1.798,8.718L-0.539,8.718C-0.18,8.718 0,8.898 0,9.302L0,30.333ZM0,4.27C0,4.629 -0.18,4.809 -0.539,4.809L-1.798,4.809C-2.202,4.809 -2.337,4.629 -2.337,4.27L-2.337,0C-2.337,-0.359 -2.202,-0.539 -1.798,-0.539L-0.539,-0.539C-0.18,-0.539 0,-0.359 0,0L0,4.27Z"/>
            </g>
        </g>
        <g transform="matrix(4.16667,0,0,4.16667,0,0)">
            <g transform="matrix(1,0,0,1,753.899,161.926)">
                <path fill="currentColor" d="M0,-22.02C0.809,-22.02 1.033,-21.705 1.078,-20.941L1.123,-19.863C2.337,-20.896 4.448,-22.379 8.089,-22.379C10.875,-22.379 12.896,-21.211 13.841,-19.369C14.919,-20.357 17.121,-22.379 21.345,-22.379C25.479,-22.379 27.86,-19.863 27.86,-16.358L27.86,-0.809C27.86,0 27.546,0.359 26.782,0.359L23.098,0.359C22.289,0.359 21.974,0 21.974,-0.809L21.974,-14.874C21.974,-16.493 21.435,-17.256 19.548,-17.256C17.166,-17.256 15.233,-15.819 14.604,-15.279L14.604,-0.809C14.604,0 14.29,0.359 13.48,0.359L9.841,0.359C9.032,0.359 8.673,0 8.673,-0.809L8.673,-14.874C8.673,-16.493 8.179,-17.256 6.246,-17.256C3.999,-17.256 2.157,-15.999 1.303,-15.234L1.303,-0.809C1.303,0 1.033,0.359 0.27,0.359L-3.46,0.359C-4.27,0.359 -4.584,0 -4.584,-0.809L-4.584,-20.941C-4.584,-21.705 -4.27,-22.02 -3.46,-22.02L0,-22.02Z"/>
            </g>
        </g>
        <g transform="matrix(4.16667,0,0,4.16667,0,0)">
            <g transform="matrix(1,0,0,1,798.744,146.152)">
                <path fill="currentColor" d="M0,9.887L0,7.325L-5.033,7.325C-6.785,7.325 -7.189,8.179 -7.189,9.348L-7.189,10.067C-7.189,11.414 -6.291,11.82 -4.942,11.82C-2.876,11.82 -1.033,10.651 0,9.887M-12.313,-0.134C-12.313,-4.134 -9.661,-6.605 -3.235,-6.605C3.325,-6.605 5.797,-4.134 5.797,-0.134L5.797,14.965C5.797,15.774 5.482,16.133 4.719,16.133L1.349,16.133C0.539,16.133 0.359,15.774 0.27,14.965L0.18,14.021C-1.123,15.1 -3.325,16.492 -6.471,16.492C-10.875,16.492 -12.941,13.841 -12.941,10.875L-12.941,8.853C-12.941,5.842 -10.649,3.191 -6.201,3.191L0,3.191L0,0.316C0,-1.302 -0.764,-2.201 -3.37,-2.201C-5.932,-2.201 -6.83,-1.482 -6.83,0.135L-6.83,0.45C-6.83,1.259 -7.145,1.574 -7.909,1.574L-11.234,1.574C-12.043,1.574 -12.313,1.259 -12.313,0.45L-12.313,-0.134Z"/>
            </g>
        </g>
        <g transform="matrix(4.16667,0,0,4.16667,0,0)">
            <g transform="matrix(1,0,0,1,822.695,161.207)">
                <path fill="currentColor" d="M0,-20.581L0,-17.706C0,-16.896 -0.36,-16.581 -1.169,-16.537C-4.449,-16.312 -6.651,-14.785 -7.64,-13.885L-7.64,-0.089C-7.64,0.719 -7.909,1.079 -8.673,1.079L-12.403,1.079C-13.212,1.079 -13.526,0.719 -13.526,-0.089L-13.526,-20.222C-13.526,-20.985 -13.212,-21.3 -12.403,-21.3L-8.942,-21.3C-8.134,-21.3 -7.909,-20.985 -7.864,-20.222L-7.729,-18.649C-6.562,-19.907 -4.404,-21.66 -1.169,-21.66C-0.36,-21.66 0,-21.345 0,-20.581"/>
            </g>
        </g>
        <g transform="matrix(4.16667,0,0,4.16667,0,0)">
            <g transform="matrix(1,0,0,1,830.828,155.724)">
                <path fill="currentColor" d="M0,-0.583C0,0.63 0.359,1.798 2.472,1.798C4.673,1.798 6.695,0.45 7.639,-0.269L7.639,-8.986C6.695,-9.706 4.673,-11.054 2.472,-11.054C0.359,-11.054 0,-9.886 0,-8.717L0,-0.583ZM-5.887,0.36L-5.887,-9.616C-5.887,-13.615 -3.82,-16.177 0.629,-16.177C4.269,-16.177 6.561,-14.604 7.819,-13.57L7.909,-14.694C7.999,-15.502 8.179,-15.817 8.987,-15.817L12.447,-15.817C13.211,-15.817 13.526,-15.502 13.526,-14.694L13.526,8.988C13.526,12.987 10.515,15.594 3.909,15.594L-2.427,15.594C-3.235,15.594 -3.55,15.324 -3.55,14.516L-3.55,11.909C-3.55,11.101 -3.235,10.74 -2.427,10.74L3.909,10.74C6.426,10.74 7.639,9.977 7.639,8.314L7.639,4.539C6.336,5.483 4.089,6.921 0.629,6.921C-3.82,6.921 -5.887,4.359 -5.887,0.36"/>
            </g>
        </g>
        <g transform="matrix(4.16667,0,0,4.16667,0,0)">
            <g transform="matrix(1,0,0,1,855.092,132.042)">
                <path fill="currentColor" d="M0,29.075C0,29.884 -0.27,30.243 -1.033,30.243L-4.764,30.243C-5.572,30.243 -5.887,29.884 -5.887,29.075L-5.887,8.988C-5.887,8.179 -5.572,7.864 -4.764,7.864L-1.033,7.864C-0.27,7.864 0,8.179 0,8.988L0,29.075ZM0,3.865C0,4.629 -0.27,4.943 -1.033,4.943L-4.764,4.943C-5.572,4.943 -5.887,4.629 -5.887,3.865L-5.887,0C-5.887,-0.809 -5.572,-1.168 -4.764,-1.168L-1.033,-1.168C-0.27,-1.168 0,-0.809 0,0L0,3.865Z"/>
            </g>
        </g>
        <g transform="matrix(4.16667,0,0,4.16667,0,0)">
            <g transform="matrix(1,0,0,1,864.573,161.926)">
                <path fill="currentColor"  d="M0,-22.02C0.809,-22.02 1.033,-21.705 1.078,-20.941L1.168,-19.863C2.426,-20.896 4.718,-22.379 8.357,-22.379C12.492,-22.379 14.874,-19.863 14.874,-16.358L14.874,-0.809C14.874,0 14.56,0.359 13.75,0.359L10.11,0.359C9.302,0.359 8.942,0 8.942,-0.809L8.942,-14.874C8.942,-16.493 8.447,-17.256 6.516,-17.256C4.269,-17.256 2.246,-15.954 1.303,-15.234L1.303,-0.809C1.303,0 1.033,0.359 0.27,0.359L-3.461,0.359C-4.27,0.359 -4.584,0 -4.584,-0.809L-4.584,-20.941C-4.584,-21.705 -4.27,-22.02 -3.461,-22.02L0,-22.02Z"/>
            </g>
        </g>
        <g transform="matrix(4.16667,0,0,4.16667,0,0)">
            <clipPath id="_clip1">
                <path fill="currentColor" d="M631.795,126.836L631.795,136.681C624.116,139.473 618.62,146.816 618.62,155.461C618.62,166.507 627.574,175.461 638.62,175.461C647.266,175.461 654.608,169.964 657.401,162.285L667.245,162.285L667.245,126.836L631.795,126.836Z" clip-rule="nonzero"/>
            </clipPath>
            <g clip-path="url(#_clip1)">
                <g transform="matrix(1,0,0,1,667.245,162.285)">
                    <path fill="currentColor" d="M0,-35.449L-35.449,-35.449L-35.449,-25.605C-33.316,-26.38 -31.025,-26.825 -28.624,-26.825C-17.579,-26.825 -8.624,-17.87 -8.624,-6.825C-8.624,-4.424 -9.069,-2.133 -9.844,0L0,0L0,-35.449Z"/>
                </g>
                <g transform="matrix(1,0,0,1,631.796,175.461)">
                    <path fill="currentColor" d="M0,-38.78C-7.68,-35.987 -13.176,-28.645 -13.176,-20C-13.176,-8.954 -4.221,0 6.824,0C15.47,0 22.812,-5.496 25.604,-13.176L0,-13.176L0,-38.78Z"/>
                </g>
            </g>
        </g>
    </g>
</svg>
